<svg width="90" height="90" viewBox="0 0 90 90" fill="none" xmlns="http://www.w3.org/2000/svg">
<rect x="20" y="20" width="10" height="10" fill="#A7FF05"/>
<rect x="20" y="30" width="10" height="10" fill="#A7FF05"/>
<rect x="20" y="60" width="10" height="10" fill="#A7FF05"/>
<rect x="30" y="60" width="10" height="10" fill="#A7FF05"/>
<rect x="40" y="60" width="10" height="10" fill="#A7FF05"/>
<rect x="60" y="20" width="10" height="10" fill="#A7FF05"/>
<rect x="60" y="60" width="10" height="10" fill="#A7FF05"/>
<rect x="20" y="10" width="10" height="10" fill="#A7FF05"/>
<rect x="30" y="40" width="10" height="10" fill="#A7FF05"/>
<rect x="40" y="40" width="10" height="10" fill="#A7FF05"/>
<rect x="50" y="40" width="10" height="10" fill="#A7FF05"/>
<rect x="50" y="60" width="10" height="10" fill="#A7FF05"/>
<rect x="60" y="10" width="10" height="10" fill="#A7FF05"/>
<rect x="60" y="30" width="10" height="10" fill="#A7FF05"/>
<rect x="10" y="70" width="10" height="10" fill="#A7FF05"/>
<rect x="10" y="80" width="10" height="10" fill="#A7FF05"/>
<rect x="30" width="10" height="10" fill="#A7FF05"/>
<rect x="40" width="10" height="10" fill="#A7FF05"/>
<rect x="50" width="10" height="10" fill="#A7FF05"/>
<rect x="70" y="80" width="10" height="10" fill="#A7FF05"/>
<rect x="70" y="70" width="10" height="10" fill="#A7FF05"/>
</svg>
